<svg width="12" height="12" viewBox="0 0 12 12" fill="none" xmlns="http://www.w3.org/2000/svg">
<path d="M11.4834 9.84999L7.63341 5.99999L11.4834 2.14999C11.9501 1.68332 11.9501 0.983323 11.4834 0.516657C11.0167 0.0499901 10.3167 0.0499901 9.85008 0.516657L5.18341 5.18332C4.71675 5.64999 4.71675 6.34999 5.18341 6.81666L9.85008 11.4833C10.0834 11.7167 10.3167 11.8333 10.6667 11.8333C11.0167 11.8333 11.2501 11.7167 11.4834 11.4833C11.9501 11.0167 11.9501 10.3167 11.4834 9.84999ZM1.33341 0.166656C0.633415 0.166656 0.166748 0.633323 0.166748 1.33332V10.6667C0.166748 11.3667 0.633415 11.8333 1.33341 11.8333C2.03341 11.8333 2.50008 11.3667 2.50008 10.6667V1.33332C2.50008 0.633323 2.03341 0.166656 1.33341 0.166656Z" fill="#131313"/>
</svg>
