<svg width="84" height="22" viewBox="0 0 84 22" fill="none" xmlns="http://www.w3.org/2000/svg">
<path fill-rule="evenodd" clip-rule="evenodd" d="M11.8803 21.5L21.1947 12.4634H21.1925C24.8631 8.90438 26.3529 8.36405 33.3527 8.36405H61.2696L69.3021 0.5H32.2941C22.925 0.5 20.2759 1.3925 14.7809 6.83063L0 21.5H11.8803ZM33.5212 9.6197H60.071L52.7079 16.9828H33.6591C30.1678 16.9828 29.3955 17.1469 27.663 18.8794L25.0425 21.5H14.0262L22.1703 13.3559C25.3684 10.16 26.471 9.6197 33.5212 9.6197ZM84 0.5L62.943 21.5H49.9209L70.9209 0.5H84ZM70.1355 20.835C70.5731 21.2791 71.1244 21.5 71.7872 21.5C72.45 21.5 72.9947 21.2791 73.4257 20.8394C73.8565 20.3997 74.0709 19.855 74.0709 19.2075C74.0709 18.56 73.8544 18.0153 73.4212 17.5712C72.9881 17.1272 72.4413 16.9062 71.7785 16.9062C71.1157 16.9062 70.5666 17.1272 70.1313 17.5669C69.6958 18.0066 69.4772 18.5513 69.4772 19.1987C69.4772 19.8462 69.6959 20.3909 70.1355 20.835ZM70.4091 17.8316C70.7766 17.4553 71.2315 17.2672 71.7741 17.2672C72.3187 17.2672 72.7737 17.4553 73.1391 17.8316C73.5045 18.2078 73.6882 18.665 73.6882 19.2031C73.6882 19.7412 73.5045 20.1962 73.1391 20.5703C72.7716 20.9444 72.3187 21.1303 71.7741 21.1303C71.2294 21.1303 70.7745 20.9422 70.4091 20.5659C70.0437 20.1897 69.8599 19.7347 69.8599 19.1987C69.8599 18.6628 70.0437 18.2078 70.4091 17.8316ZM71.3257 20.4828V19.5816L71.3278 19.5837H71.8418L72.2773 20.485H72.8088L72.3298 19.5181C72.4915 19.4438 72.6054 19.3475 72.6731 19.2272C72.7408 19.1069 72.7737 18.9231 72.7737 18.6759C72.7737 18.4287 72.6907 18.2428 72.5243 18.1203C72.3581 17.9956 72.1087 17.9344 71.7785 17.9344H70.8204V20.4828H71.3257ZM71.3168 19.1856V18.3281H71.7347C72.0956 18.3281 72.2749 18.4703 72.2749 18.7569C72.2749 18.9078 72.24 19.0172 72.1699 19.085C72.1022 19.1528 71.9885 19.1856 71.831 19.1856H71.3168Z" fill="#EE0000"/>
</svg>
