<svg xmlns="http://www.w3.org/2000/svg"  viewBox="0 0 64 64" width="64px" height="64px"><linearGradient id="JBFUOgBO9AbYTIsSQqxiya" x1="31.481" x2="31.481" y1="37.792" y2="47" gradientUnits="userSpaceOnUse"><stop offset="0" stop-color="#1a6dff"/><stop offset="1" stop-color="#c822ff"/></linearGradient><path fill="url(#JBFUOgBO9AbYTIsSQqxiya)" d="M28.59,46.672c-0.465,0-0.811,0-1.272,0c0-1.481,0.046-2.908-0.025-4.329	c-0.026-0.509-0.268-1.39-0.527-1.435c-0.844-0.148-1.751-0.048-2.609,0.101c-0.176,0.03-0.336,0.682-0.346,1.052	c-0.039,1.496-0.016,2.994-0.016,4.583c-0.422,0-0.79,0-1.221,0c0-2.319,0-4.606,0-6.995c0.367-0.019,0.711-0.038,1.124-0.06	c0.061,0.306,0.115,0.572,0.174,0.866c1.306-1.27,3.289-1.223,4.528,0.065c0.867-0.912,2.64-1.339,3.755-0.708	c0.497,0.282,1.028,0.968,1.07,1.507c0.135,1.747,0.05,3.51,0.05,5.341c-0.353,0-0.697,0-1.174,0c0-1.451,0.046-2.876-0.024-4.296	c-0.025-0.512-0.257-1.397-0.516-1.445c-0.842-0.154-1.75-0.058-2.608,0.084c-0.173,0.029-0.337,0.678-0.346,1.045	C28.568,43.546,28.59,45.044,28.59,46.672z M49.792,40.644c-1.222,1.008-2.508,1.802-3.761,2.646	c-0.777,0.523-1.164,1.25-0.901,2.232c0.26,0.971,1.031,1.168,1.852,1.195c1.36,0.045,2.724,0.04,4.084-0.005	c0.229-0.007,0.64-0.315,0.642-0.489c0.026-1.663,0.014-3.328-0.055-4.99c-0.041-0.984-0.69-1.537-1.621-1.578	c-1.516-0.067-3.037-0.018-4.593-0.018c0,0.342,0,0.619,0,1.007C46.924,40.644,48.358,40.644,49.792,40.644z M50.388,45.519	c-1.163,0-2.365,0.083-3.547-0.034c-0.61-0.061-0.678-0.984-0.058-1.431c1.122-0.808,2.314-1.519,3.605-2.354	C50.388,43.039,50.388,44.19,50.388,45.519z M13.892,39.523c-0.874-0.133-1.798-0.115-2.676,0.005	c-1.35,0.185-2.037,0.901-2.207,2.323c-0.198,1.648-0.543,3.502,1.171,4.535c1.454,0.875,3.169,0.752,4.701,0.024	c1.306-0.621,1.399-1.917,1.352-3.128C16.233,40.842,15.612,39.786,13.892,39.523z M10.25,42.138	c0.06-1.071,0.452-1.486,1.507-1.619c2.628-0.33,3.158,0.131,3.154,2.749c-0.001,0.399-0.005,0.8-0.046,1.197	c-0.023,0.225-0.086,0.464-0.196,0.66c-0.367,0.657-2.092,0.969-3.346,0.615c-0.806-0.227-1.051-0.847-1.073-1.605	c-0.01-0.333-0.002-0.666-0.002-0.999C10.247,42.804,10.232,42.47,10.25,42.138z M1.53,46.666c0.429,0,0.777,0,1.246,0	c0-1.312,0-2.56,0-3.906c1.799,0,3.48,0,5.246,0c-0.028-0.416-0.049-0.725-0.078-1.148c-1.765,0-3.44,0-5.121,0	c0-0.94,0-1.759,0-2.702c1.798,0,3.543,0,5.316,0c0-0.432,0-0.738,0-1.079c-2.226,0-4.379,0-6.609,0	C1.53,40.84,1.53,43.75,1.53,46.666z M34.826,44.932c0.035,0.966,0.594,1.682,1.604,1.731c1.516,0.073,3.038,0.019,4.594,0.019	c0-2.373,0-4.684,0-7.018c-0.419,0-0.762,0-1.202,0c0,1.982,0,3.9,0,5.939c-0.782,0-1.471,0.004-2.159-0.001	c-1.452-0.011-1.667-0.228-1.67-1.687c-0.003-1.421-0.001-2.842-0.001-4.277c-0.469,0-0.792,0-1.184,0	C34.808,41.476,34.763,43.206,34.826,44.932z M59.141,44.709c-0.005-1.732,0.01-3.464-0.013-5.195	c-0.01-0.8-0.149-1.603-1.155-1.686c-0.849-0.07-1.708-0.014-2.571-0.014c0,0.397,0,0.688,0,1.098c0.6,0,1.164-0.052,1.71,0.024	c0.241,0.034,0.636,0.323,0.64,0.504c0.046,2.019,0.029,4.039,0.029,6.157c-0.934,0-1.749,0-2.606,0c0,0.412,0,0.723,0,1.082	c2.106,0,4.149,0,6.256,0c0-0.364,0-0.674,0-1.057c-0.747,0-1.433,0-2.234,0C59.172,45.227,59.142,44.968,59.141,44.709z M18.684,42.92c0-2.115,0-2.114,2.146-2.191c0.126-0.005,0.252-0.033,0.419-0.056c0-0.367,0-0.7,0-1.049	c-0.817,0-1.547-0.045-2.27,0.012c-0.801,0.063-1.448,0.475-1.474,1.336c-0.057,1.881-0.018,3.766-0.018,5.704	c0.405,0,0.722,0,1.197,0C18.684,45.369,18.684,44.144,18.684,42.92z M42.79,46.652c0.408,0,0.749,0,1.091,0c0-2.983,0-5.89,0-8.806	c-0.402,0-0.721,0-1.091,0C42.79,40.803,42.79,43.711,42.79,46.652z"/><linearGradient id="JBFUOgBO9AbYTIsSQqxiyb" x1="1" x2="63.122" y1="27.42" y2="27.42" gradientUnits="userSpaceOnUse"><stop offset="0" stop-color="#8ab4ff"/><stop offset="1" stop-color="#e492ff"/></linearGradient><path fill="url(#JBFUOgBO9AbYTIsSQqxiyb)" d="M1,35l11.234-10.702	c0,0,3.383-4.372,10.723-4.468c7.404-0.097,29.298,0,29.298,0l-5.617,5.681H22.957c0,0-3.287,0.064-5.043,2.234l-7.596,7.213L1,35z M19.941,35.029l1.963-1.987c0.527-0.527,1.316-1.053,2.25-1.053c0.527,0,2.106,0,2.106,0h13.835l5.218-5.122H23.628	c-3.495,0-5.457,2.106-5.457,2.106l-6.128,6.08L19.941,35.029z M39.043,34.957h9.144l14.936-14.936h-9.191	C53.931,20.021,39.138,34.862,39.043,34.957z"/></svg>