<svg xmlns="http://www.w3.org/2000/svg"  viewBox="0 0 48 48" width="48px" height="48px" baseProfile="basic"><path fill="#52cccc" d="M22.75,4.75v8.594l-15,6.888v20.5c0.781,0.781,1.219,1.219,2,2l13,0.018h15.5	c0.781-0.781,1.219-1.219,2-2v-28L22.75,4.75z" opacity=".15"/><path fill="#52cccc" d="M24.25,41.5h-0.5v-2h0.5V41.5z M25.5,39.5H25v2h0.5V39.5z M26.75,39.5h-0.5v2h0.5V39.5z M28,39.5h-0.5v2H28V39.5z M29.25,39.5h-0.5v2h0.5V39.5z M30.5,39.5H30v2h0.5V39.5z M31.75,39.5h-0.5v2h0.5V39.5z M33,39.5h-0.5v2	H33V39.5z M34.25,39.5h-0.5v2h0.5V39.5z M35.5,39.5H35v2h0.5V39.5z M36.75,39.5h-0.5v2h0.5V39.5z M38,39.5h-0.5v2H38V39.5z" opacity=".8"/><path fill="#52cccc" d="M10.442,41.5h-0.5v-2h0.5V41.5z M11.621,39.5h-0.5v2h0.5V39.5z M12.799,39.5h-0.5v2h0.5	V39.5z M13.977,39.5h-0.5v2h0.5V39.5z M15.155,39.5h-0.5v2h0.5V39.5z" opacity=".8"/><rect width="7" height="8" x="28" y="28" fill="#52cccc" opacity=".8"/><polygon fill="#52cccc" points="28,13 28,24 35,24 35,16.276" opacity=".8"/><path fill="#52cccc" d="M9.267,26h-0.5v-2h0.5V26z M10.539,24h-0.5v2h0.5V24z M11.811,24h-0.5v2h0.5V24z M13.082,24h-0.5v2h0.5V24z M14.354,24h-0.5v2h0.5V24z M15.625,24h-0.5v2h0.5V24z M16.896,24h-0.5v2h0.5V24z M18.168,24h-0.5v2h0.5	V24z M19.439,24h-0.5v2h0.5V24z M20.711,24h-0.5v2h0.5V24z M21.983,24h-0.5v2h0.5V24z" opacity=".8"/><path fill="#52cccc" d="M42.3,14.614l1.615-0.904L22.75,3.887l-1.685,0.872L22.5,5.425v7.208L4.089,21.088l1.658,0.888	L7.5,21.171V31l-1,1.036l0,9.232L9.232,44h5.808l0.973-1.014l6.969,0.004L23.959,44h14.808l2.732-2.732l0-16.232L40.5,24V13.778	L42.3,14.614z M9.854,42.482L8,40.628V20.942l14.75-6.773v16.706h-6.875v11.611L9.854,42.482z M22.75,42.49l-6.625-0.004V31.125	h6.625V42.49z M40,40.646L38.146,42.5L23,42.49V5.657l17,7.889V40.646z"/></svg>