<svg width="12" height="12" viewBox="0 0 12 12" fill="none" xmlns="http://www.w3.org/2000/svg">
<path d="M0.516584 9.84999L4.36659 5.99999L0.516584 2.14999C0.0499182 1.68332 0.0499182 0.983323 0.516584 0.516657C0.983252 0.0499901 1.68325 0.0499901 2.14992 0.516657L6.81659 5.18332C7.28325 5.64999 7.28325 6.34999 6.81659 6.81666L2.14992 11.4833C1.91658 11.7167 1.68325 11.8333 1.33325 11.8333C0.983253 11.8333 0.749918 11.7167 0.516584 11.4833C0.0499182 11.0167 0.0499182 10.3167 0.516584 9.84999ZM10.6666 0.166656C11.3666 0.166656 11.8333 0.633323 11.8333 1.33332V10.6667C11.8333 11.3667 11.3666 11.8333 10.6666 11.8333C9.96659 11.8333 9.49992 11.3667 9.49992 10.6667V1.33332C9.49992 0.633323 9.96659 0.166656 10.6666 0.166656Z" fill="#131313"/>
</svg>
