<svg width="24" height="24" viewBox="0 0 24 24" fill="none" xmlns="http://www.w3.org/2000/svg">
<path d="M3.99999 2.62956V22" stroke="white" stroke-width="1.5"/>
<path d="M19.3846 14.4068L18.2115 14.0388C16.4716 13.4865 14.6053 13.4865 12.8654 14.0388L12.4423 14.1744C11.9347 14.3328 11.4498 14.5575 11 14.8426C10.0621 15.4594 8.96623 15.7878 7.84615 15.7878C6.72606 15.7878 5.6302 15.4594 4.6923 14.8426L3.99999 14.4068V2.78453L4.6923 3.22037C5.6302 3.83713 6.72606 4.16555 7.84615 4.16555C8.96623 4.16555 10.0621 3.83713 11 3.22037C11.4498 2.93523 11.9347 2.71057 12.4423 2.55209L12.8654 2.41649C14.6053 1.86426 16.4716 1.86426 18.2115 2.41649L19.3846 2.78453V14.4068Z" stroke="white" stroke-width="1.5"/>
<path d="M7.84615 4.15986V8.03395C6.7248 8.01989 5.63071 7.6839 4.6923 7.06543L3.99999 6.65865V2.78456L4.6923 3.2204C5.6338 3.82862 6.72766 4.15446 7.84615 4.15986Z" fill="white"/>
<path d="M15.5385 2V5.87409C14.6318 5.87824 13.7309 6.0186 12.8654 6.29055L12.4423 6.42615C12.1861 6.50601 11.9356 6.60308 11.6923 6.7167V2.84261C11.9356 2.72899 12.1861 2.63192 12.4423 2.55206L12.8654 2.41646C13.7309 2.14451 14.6318 2.00415 15.5385 2Z" fill="white"/>
<path d="M11.6923 6.71671V10.5908C11.4517 10.6974 11.2201 10.8238 11 10.9685C10.0623 11.5885 8.96774 11.9246 7.84615 11.937V8.06295C8.96774 8.0505 10.0623 7.71438 11 7.09443C11.2201 6.94967 11.4517 6.82334 11.6923 6.71671Z" fill="white"/>
<path d="M19.3846 6.65859V10.5327L18.2115 10.1646C17.3462 9.89198 16.4451 9.75159 15.5385 9.74817V5.87408C16.4451 5.87751 17.3462 6.01789 18.2115 6.29055L19.3846 6.65859Z" fill="white"/>
<path d="M15.5385 9.74817V13.6223C14.6318 13.6264 13.7309 13.7668 12.8654 14.0387L12.4423 14.1743C12.1861 14.2542 11.9356 14.3512 11.6923 14.4649V10.5908C11.9356 10.4772 12.1861 10.3801 12.4423 10.3002L12.8654 10.1646C13.7309 9.89268 14.6318 9.75232 15.5385 9.74817Z" fill="white"/>
<path d="M7.84615 11.908V15.7821C6.7248 15.7681 5.63071 15.4321 4.6923 14.8136L3.99999 14.4068V10.5327L4.6923 10.9686C5.6338 11.5768 6.72766 11.9026 7.84615 11.908Z" fill="white"/>
</svg>
