<svg width="25" height="25" viewBox="0 0 25 25" fill="none" xmlns="http://www.w3.org/2000/svg">
<path d="M16.797 6.64063C16.797 5.79079 16.545 4.96003 16.0728 4.25341C15.6007 3.54679 14.9296 2.99605 14.1444 2.67083C13.3593 2.34561 12.4953 2.26052 11.6618 2.42632C10.8283 2.59211 10.0627 3.00135 9.46175 3.60228C8.86082 4.20321 8.45158 4.96884 8.28579 5.80235C8.11999 6.63586 8.20508 7.49982 8.5303 8.28497C8.85552 9.07012 9.40626 9.7412 10.1129 10.2133C10.8195 10.6855 11.6503 10.9375 12.5001 10.9375C13.6393 10.9362 14.7315 10.4831 15.537 9.67755C16.3426 8.87201 16.7957 7.77983 16.797 6.64063ZM12.5001 9.375C11.9593 9.375 11.4306 9.21463 10.981 8.91418C10.5313 8.61372 10.1808 8.18667 9.97386 7.68703C9.76691 7.18739 9.71276 6.63759 9.81826 6.10718C9.92377 5.57676 10.1842 5.08954 10.5666 4.70713C10.949 4.32472 11.4362 4.0643 11.9666 3.95879C12.4971 3.85329 13.0469 3.90744 13.5465 4.11439C14.0461 4.32135 14.4732 4.67182 14.7736 5.12149C15.0741 5.57116 15.2345 6.09982 15.2345 6.64063C15.2345 7.36583 14.9464 8.06133 14.4336 8.57412C13.9208 9.08692 13.2253 9.375 12.5001 9.375ZM20.3126 21.875C20.3126 22.0822 20.2303 22.2809 20.0838 22.4274C19.9373 22.5739 19.7385 22.6563 19.5313 22.6563H5.46885C5.31017 22.6562 5.15527 22.6079 5.02474 22.5176C4.89422 22.4274 4.79426 22.2996 4.73818 22.1511C4.68209 22.0027 4.67253 21.8407 4.71077 21.6867C4.74901 21.5327 4.83324 21.394 4.95225 21.2891L14.5294 12.8379C13.6679 12.5416 12.7521 12.4372 11.8461 12.532C10.94 12.6268 10.0657 12.9185 9.28423 13.3868C8.50277 13.855 7.83312 14.4884 7.32217 15.2426C6.81122 15.9968 6.47132 16.8536 6.32627 17.7529C6.28525 17.9497 6.16998 18.1231 6.00442 18.237C5.83885 18.351 5.63574 18.3967 5.43731 18.3648C5.23888 18.3329 5.06038 18.2257 4.93895 18.0655C4.81751 17.9054 4.76246 17.7046 4.78525 17.5049C4.97817 16.309 5.44653 15.1743 6.15334 14.1906C6.86015 13.2068 7.78604 12.4009 8.85787 11.8364C9.9297 11.272 11.1181 10.9646 12.3292 10.9384C13.5402 10.9122 14.7408 11.168 15.836 11.6855L18.2335 9.57031C18.3894 9.43714 18.5915 9.37061 18.796 9.3851C19.0006 9.39958 19.1913 9.49391 19.3269 9.64773C19.4625 9.80155 19.5322 10.0025 19.5209 10.2073C19.5097 10.412 19.4184 10.6042 19.2667 10.7422L7.53525 21.0938H19.5313C19.7385 21.0938 19.9373 21.1761 20.0838 21.3226C20.2303 21.4691 20.3126 21.6678 20.3126 21.875ZM18.919 14.2949C19.829 15.6021 20.3155 17.1573 20.3126 18.75C20.3126 18.9572 20.2303 19.1559 20.0838 19.3024C19.9373 19.4489 19.7385 19.5313 19.5313 19.5313C19.3241 19.5313 19.1254 19.4489 18.9789 19.3024C18.8324 19.1559 18.7501 18.9572 18.7501 18.75C18.7525 17.4761 18.3635 16.2322 17.6358 15.1865C17.5176 15.0164 17.4718 14.8062 17.5085 14.6023C17.5453 14.3983 17.6615 14.2174 17.8316 14.0991C18.0018 13.9809 18.212 13.9351 18.4159 13.9718C18.6198 14.0085 18.8008 14.1248 18.919 14.2949Z" fill="#E6FE58"/>
</svg>
