<svg width="25" height="25" viewBox="0 0 25 25" fill="none" xmlns="http://www.w3.org/2000/svg">
<path d="M12.5 21.875C13.7311 21.875 14.9502 21.6325 16.0877 21.1614C17.2251 20.6902 18.2586 19.9997 19.1291 19.1291C19.9997 18.2586 20.6902 17.2251 21.1614 16.0877C21.6325 14.9502 21.875 13.7311 21.875 12.5C21.875 11.2689 21.6325 10.0498 21.1614 8.91234C20.6902 7.77492 19.9997 6.74142 19.1291 5.87087C18.2586 5.00032 17.2251 4.30977 16.0877 3.83863C14.9502 3.36749 13.7311 3.125 12.5 3.125C10.0136 3.125 7.62903 4.11272 5.87087 5.87087C4.11272 7.62903 3.125 10.0136 3.125 12.5C3.125 14.9864 4.11272 17.371 5.87087 19.1291C7.62903 20.8873 10.0136 21.875 12.5 21.875ZM12.5 23.4375C9.59919 23.4375 6.8172 22.2852 4.76602 20.234C2.71484 18.1828 1.5625 15.4008 1.5625 12.5C1.5625 9.59919 2.71484 6.8172 4.76602 4.76602C6.8172 2.71484 9.59919 1.5625 12.5 1.5625C15.4008 1.5625 18.1828 2.71484 20.234 4.76602C22.2852 6.8172 23.4375 9.59919 23.4375 12.5C23.4375 15.4008 22.2852 18.1828 20.234 20.234C18.1828 22.2852 15.4008 23.4375 12.5 23.4375Z" fill="#E6FE58"/>
<path d="M4.6875 12.5C4.6875 10.428 5.5106 8.44086 6.97573 6.97573C8.44086 5.5106 10.428 4.6875 12.5 4.6875C14.572 4.6875 16.5591 5.5106 18.0243 6.97573C19.4894 8.44086 20.3125 10.428 20.3125 12.5C20.3125 12.7072 20.2302 12.9059 20.0837 13.0524C19.9372 13.1989 19.7385 13.2812 19.5312 13.2812C19.324 13.2812 19.1253 13.1989 18.9788 13.0524C18.8323 12.9059 18.75 12.7072 18.75 12.5C18.75 10.8424 18.0915 9.25268 16.9194 8.08058C15.7473 6.90848 14.1576 6.25 12.5 6.25C10.8424 6.25 9.25268 6.90848 8.08058 8.08058C6.90848 9.25268 6.25 10.8424 6.25 12.5C6.25 12.7072 6.16769 12.9059 6.02118 13.0524C5.87466 13.1989 5.67595 13.2812 5.46875 13.2812C5.26155 13.2812 5.06284 13.1989 4.91632 13.0524C4.76981 12.9059 4.6875 12.7072 4.6875 12.5Z" fill="#E6FE58"/>
<path d="M13.9266 15.3281C14.365 15.6649 14.6703 16.1459 14.7884 16.686C14.9065 17.2261 14.8299 17.7905 14.5722 18.2796C14.3144 18.7687 13.892 19.1509 13.3797 19.3587C12.8673 19.5665 12.298 19.5865 11.7724 19.4151C11.2468 19.2438 10.7986 18.8921 10.5072 18.4223C10.2157 17.9525 10.0997 17.3948 10.1797 16.8478C10.2596 16.3007 10.5304 15.7996 10.9442 15.4328C11.3579 15.0661 11.8879 14.8575 12.4406 14.8437L13.9297 10.2594C13.9605 10.1608 14.0107 10.0693 14.0771 9.99018C14.1436 9.91108 14.225 9.84594 14.3168 9.79854C14.4086 9.75114 14.5089 9.72242 14.6119 9.71403C14.7148 9.70565 14.8185 9.71777 14.9167 9.74969C15.015 9.78162 15.1059 9.83271 15.1843 9.90002C15.2627 9.96733 15.3269 10.0495 15.3733 10.1418C15.4197 10.2341 15.4473 10.3347 15.4546 10.4378C15.4619 10.5408 15.4486 10.6443 15.4156 10.7422L13.9266 15.3266V15.3281ZM12.2578 17.9312C12.3555 17.9631 12.4585 17.9753 12.5609 17.9673C12.6633 17.9593 12.7631 17.9312 12.8547 17.8847C12.9462 17.8381 13.0277 17.7739 13.0945 17.6959C13.1612 17.6178 13.212 17.5274 13.2438 17.4297C13.2756 17.332 13.2878 17.229 13.2798 17.1266C13.2718 17.0242 13.2437 16.9244 13.1972 16.8328C13.1506 16.7413 13.0864 16.6598 13.0084 16.593C12.9303 16.5263 12.8399 16.4756 12.7422 16.4437C12.5449 16.3795 12.3302 16.3963 12.1453 16.4903C11.9604 16.5844 11.8205 16.7481 11.7563 16.9453C11.692 17.1426 11.7088 17.3573 11.8028 17.5422C11.8969 17.7271 12.0606 17.867 12.2578 17.9312Z" fill="#E6FE58"/>
</svg>
