<svg width="14" height="14" viewBox="0 0 14 14" fill="none" xmlns="http://www.w3.org/2000/svg">
<g clip-path="url(#clip0_21_3271)">
<path d="M7 0C5.27654 0.00122871 3.61441 0.639696 2.33333 1.79258V0.583333C2.33333 0.428624 2.27188 0.280251 2.16248 0.170854C2.05308 0.0614582 1.90471 0 1.75 0C1.59529 0 1.44692 0.0614582 1.33752 0.170854C1.22812 0.280251 1.16667 0.428624 1.16667 0.583333V2.33333C1.16667 2.79746 1.35104 3.24258 1.67923 3.57077C2.00742 3.89896 2.45254 4.08333 2.91667 4.08333H4.66667C4.82138 4.08333 4.96975 4.02188 5.07915 3.91248C5.18854 3.80308 5.25 3.65471 5.25 3.5C5.25 3.34529 5.18854 3.19692 5.07915 3.08752C4.96975 2.97813 4.82138 2.91667 4.66667 2.91667H2.91667C2.897 2.91375 2.87752 2.90966 2.85833 2.90442C3.80889 1.94707 5.06224 1.34929 6.40445 1.21314C7.74667 1.07698 9.09453 1.41088 10.218 2.15784C11.3414 2.90481 12.1708 4.01852 12.5645 5.30889C12.9583 6.59925 12.892 7.98628 12.3769 9.2332C11.8619 10.4801 10.93 11.5096 9.74047 12.146C8.5509 12.7824 7.17733 12.9862 5.85423 12.7226C4.53112 12.4591 3.34051 11.7444 2.48562 10.7008C1.63072 9.65712 1.16455 8.3491 1.16667 7C1.16667 6.84529 1.10521 6.69692 0.995812 6.58752C0.886416 6.47813 0.738043 6.41667 0.583333 6.41667C0.428624 6.41667 0.280251 6.47813 0.170854 6.58752C0.0614582 6.69692 0 6.84529 0 7C0 8.38447 0.410543 9.73785 1.17971 10.889C1.94888 12.0401 3.04213 12.9373 4.32122 13.4672C5.6003 13.997 7.00777 14.1356 8.36563 13.8655C9.7235 13.5954 10.9708 12.9287 11.9497 11.9497C12.9287 10.9708 13.5954 9.7235 13.8655 8.36563C14.1356 7.00777 13.997 5.6003 13.4672 4.32122C12.9373 3.04213 12.0401 1.94888 10.889 1.17971C9.73785 0.410543 8.38447 0 7 0V0Z" fill="white"/>
<path d="M6.99996 3.5C6.84525 3.5 6.69688 3.56146 6.58748 3.67085C6.47808 3.78025 6.41663 3.92862 6.41663 4.08333V7C6.41666 7.1547 6.47814 7.30305 6.58754 7.41242L8.33754 9.16242C8.44756 9.26868 8.59491 9.32747 8.74786 9.32614C8.90081 9.32481 9.04712 9.26347 9.15527 9.15531C9.26342 9.04716 9.32477 8.90085 9.3261 8.7479C9.32743 8.59495 9.26863 8.4476 9.16238 8.33758L7.58329 6.7585V4.08333C7.58329 3.92862 7.52183 3.78025 7.41244 3.67085C7.30304 3.56146 7.15467 3.5 6.99996 3.5Z" fill="white"/>
</g>
<defs>
<clipPath id="clip0_21_3271">
<rect width="14" height="14" fill="white"/>
</clipPath>
</defs>
</svg>
